# Wavefront OBJ file
# Exported by Maverick Model 3D 1.3.12
# Sun Aug 15 10:00:44 2021

mtllib lander.mtl

# 32 Vertices
v 7.689043 -12.444856 6.108816
v 7.689043 -12.444856 -6.456629
v 7.772729 3.573996 6.078927
v 7.772729 3.576562 -6.446225
v -7.722767 -12.444856 -6.456629
v -7.722767 -12.444856 6.108816
v -7.933175 3.576562 -6.446225
v -7.933175 3.561016 6.031421
v 7.617853 -15.370051 2.956661
v 7.617853 -15.370051 -3.501392
v 7.617854 -0.286966 2.956661
v 7.617853 -0.286966 -3.501392
v 17.190592 -15.370052 -3.501392
v 17.190594 -15.370052 2.956661
v -7.875506 -15.379252 2.956661
v -7.875506 -15.379252 -3.501391
v -7.875507 -0.296168 2.956661
v -7.875506 -0.296168 -3.501391
v -17.448246 -15.379254 -3.501393
v -17.448246 -15.379254 2.95666
v -7.933175 3.576562 -6.446225
v -7.933175 3.561016 6.031421
v -0.371643 11.925057 -0.246198
v -0.371643 11.925057 -0.246198
v 5.909988 -16.702669 5.949507
v -5.989026 -16.702669 5.949507
v 5.909988 -12.370823 5.949507
v -5.989026 -12.370823 5.949507
v -5.989026 -16.702669 -5.949507
v 5.909988 -16.702669 -5.949507
v -5.989026 -12.370823 -5.949507
v 5.909988 -12.370823 -5.949507

# 138 Texture Coordinates
vt 0.977677 0.550847
vt 0.977677 0.550847
vt 0.980226 0.995221
vt 0.977677 0.550847
vt 0.980226 0.995292
vt 0.980226 0.995221
vt 0.508249 0.550847
vt 0.508249 0.550847
vt 0.50184 0.995292
vt 0.508249 0.550847
vt 0.50184 0.994861
vt 0.50184 0.995292
vt 0.980226 0.995221
vt 0.508249 0.550847
vt 0.977677 0.550847
vt 0.980226 0.995221
vt 0.50184 0.994861
vt 0.508249 0.550847
vt 0.513139 0.532015
vt 0.995025 0.34877
vt 0.51963 0.34877
vt 0.513139 0.532015
vt 0.997606 0.532015
vt 0.995025 0.34877
vt 0.980226 0.995221
vt 0.50184 0.995292
vt 0.50184 0.994861
vt 0.980226 0.995221
vt 0.980226 0.995292
vt 0.50184 0.995292
vt 0.977677 0.550847
vt 0.508249 0.550847
vt 0.508249 0.550847
vt 0.977677 0.550847
vt 0.977677 0.550847
vt 0.508249 0.550847
vt 0.034188 0.509971
vt 0.034188 0.080736
vt 0.463169 0.080736
vt 0.034188 0.509971
vt 0.034188 0.080736
vt 0.463169 0.080736
vt 0.034188 0.509971
vt 0.034188 0.080736
vt 0.463169 0.080736
vt 0.034188 0.509971
vt 0.034188 0.080736
vt 0.463169 0.080736
vt 0.060001 0.116048
vt 0.222887 0.116048
vt 0.060001 0.300857
vt 0.463169 0.080736
vt 0.034188 0.080736
vt 0.034188 0.509971
vt 0.463169 0.080736
vt 0.034188 0.080736
vt 0.034188 0.509971
vt 0.463169 0.080736
vt 0.034188 0.080736
vt 0.034188 0.509971
vt 0.467585 0.085438
vt 0.059732 0.085438
vt 0.059732 0.472179
vt 0.467585 0.085438
vt 0.059732 0.085438
vt 0.059732 0.472179
vt 0.467585 0.085438
vt 0.059732 0.085438
vt 0.059732 0.472179
vt 0.467585 0.085438
vt 0.059732 0.085438
vt 0.059732 0.472179
vt 0.059732 0.472179
vt 0.059732 0.085438
vt 0.467585 0.085438
vt 0.059732 0.472179
vt 0.059732 0.085438
vt 0.467585 0.085438
vt 0.059732 0.472179
vt 0.059732 0.085438
vt 0.467585 0.085438
vt 0.059732 0.472179
vt 0.059732 0.085438
vt 0.467585 0.085438
vt 0.482581 0.54616
vt 0.482581 0.991966
vt 0.009802 0.991966
vt 0.009802 0.991966
vt 0.009802 0.54616
vt 0.482581 0.54616
vt 0.482581 0.54616
vt 0.482581 0.991966
vt 0.009802 0.991966
vt 0.009802 0.991966
vt 0.009802 0.54616
vt 0.482581 0.54616
vt 0.482581 0.54616
vt 0.482581 0.991966
vt 0.009802 0.991966
vt 0.009802 0.991966
vt 0.009802 0.54616
vt 0.482581 0.54616
vt 0.991897 0.007026
vt 0.991897 0.056341
vt 0.505772 0.056341
vt 0.505772 0.056341
vt 0.505772 0.007026
vt 0.991897 0.007026
vt 0.991897 0.007026
vt 0.991897 0.056341
vt 0.505772 0.056341
vt 0.505772 0.056341
vt 0.505772 0.007026
vt 0.991897 0.007026
vt 0.991897 0.007026
vt 0.991897 0.056341
vt 0.505772 0.056341
vt 0.505772 0.056341
vt 0.505772 0.007026
vt 0.991897 0.007026
vt 0.991897 0.007026
vt 0.991897 0.056341
vt 0.505772 0.056341
vt 0.505772 0.056341
vt 0.505772 0.007026
vt 0.991897 0.007026
vt 0.991897 0.007026
vt 0.991897 0.056341
vt 0.505772 0.056341
vt 0.505772 0.056341
vt 0.505772 0.007026
vt 0.991897 0.007026
vt 0.991897 0.007026
vt 0.991897 0.056341
vt 0.505772 0.056341
vt 0.505772 0.056341
vt 0.505772 0.007026
vt 0.991897 0.007026

# 138 Vertex Normals
vn 0.999986 -0.005224 0.0
vn 0.999986 -0.005224 -0.000001
vn 0.969395 0.245505 0.000051
vn 0.999986 -0.005224 -0.000001
vn 0.927225 0.374504 0.000077
vn 0.969395 0.245505 0.000051
vn -0.999914 -0.013132 0.0
vn -0.999914 -0.013138 -0.000008
vn -0.999914 -0.013138 -0.000008
vn -0.999914 -0.013138 -0.000008
vn -0.999914 -0.013145 -0.000016
vn -0.999914 -0.013138 -0.000008
vn -0.002075 0.212513 0.977156
vn -0.001514 0.003331 0.999993
vn -0.0 0.001866 0.999998
vn -0.002075 0.212513 0.977156
vn -0.003029 0.004796 0.999984
vn -0.001514 0.003331 0.999993
vn 0.0 0.000649 -1.0
vn 0.0 0.000649 -1.0
vn 0.0 0.000649 -1.0
vn 0.0 0.000649 -1.0
vn 0.0 0.314297 -0.949325
vn 0.0 0.000649 -1.0
vn 0.131537 0.980166 0.148233
vn -0.000415 1.0 0.000725
vn -0.00083 0.999999 0.001246
vn 0.131537 0.980166 0.148233
vn 0.206567 0.95065 -0.231503
vn -0.000415 1.0 0.000725
vn 0.0 -1.0 0.0
vn 0.0 -1.0 0.0
vn 0.0 -1.0 0.0
vn 0.0 -1.0 0.0
vn 0.0 -1.0 0.0
vn 0.0 -1.0 0.0
vn -1.0 0.0 0.0
vn -1.0 0.0 0.0
vn -1.0 0.0 0.0
vn -1.0 0.0 0.0
vn -1.0 -0.0 0.0
vn -1.0 0.0 0.0
vn 0.0 0.0 1.0
vn 0.0 0.0 1.0
vn 0.0 0.0 1.0
vn 0.0 0.0 -1.0
vn 0.0 0.0 -1.0
vn 0.0 0.0 -1.0
vn 0.84431 0.535856 -0.0
vn 0.84431 0.535856 -0.0
vn 0.84431 0.535856 -0.0
vn 0.84431 0.535856 -0.0
vn 0.84431 0.535856 -0.0
vn 0.84431 0.535856 -0.0
vn -0.0 -1.0 0.0
vn -0.0 -1.0 0.0
vn -0.0 -1.0 0.0
vn -0.0 -1.0 0.0
vn -0.0 -1.0 0.0
vn -0.0 -1.0 0.0
vn 1.0 0.0 0.0
vn 1.0 0.0 0.0
vn 1.0 0.0 0.0
vn 1.0 0.0 0.0
vn 1.0 0.0 0.0
vn 1.0 0.0 0.0
vn -0.0 0.0 1.0
vn -0.0 0.0 1.0
vn -0.0 0.0 1.0
vn 0.0 0.0 -1.0
vn 0.0 0.0 -1.0
vn 0.0 0.0 -1.0
vn -0.84431 0.535856 -0.0
vn -0.84431 0.535856 -0.0
vn -0.84431 0.535856 0.0
vn -0.84431 0.535856 -0.0
vn -0.84431 0.535856 -0.0
vn -0.84431 0.535856 -0.0
vn 0.0 -1.0 0.0
vn 0.0 -1.0 0.0
vn 0.0 -1.0 0.0
vn 0.0 -1.0 0.0
vn 0.0 -1.0 0.0
vn 0.0 -1.0 0.0
vn -0.215491 0.94845 -0.232392
vn -0.295443 0.901096 0.317396
vn 0.131537 0.980166 0.148233
vn 0.131537 0.980166 0.148233
vn 0.206567 0.95065 -0.231503
vn -0.215491 0.94845 -0.232392
vn -0.295443 0.901096 0.317396
vn 0.11721 0.878241 0.463632
vn -0.002913 0.601961 0.79852
vn 0.425353 0.769156 -0.476943
vn 0.452033 0.881933 0.13364
vn 0.452057 0.866585 -0.211367
vn -0.012073 0.925842 -0.377718
vn 0.18723 0.861828 -0.471378
vn -0.215491 0.94845 -0.232392
vn -0.215491 0.94845 -0.232392
vn -0.295443 0.901096 0.317396
vn -0.443221 0.757459 -0.479386
vn 0.0 0.0 1.0
vn 0.0 0.0 1.0
vn 0.0 0.0 1.0
vn 0.0 0.0 1.0
vn 0.0 0.0 1.0
vn 0.0 0.0 1.0
vn 0.0 0.0 -1.0
vn 0.0 0.0 -1.0
vn 0.0 0.0 -1.0
vn 0.0 0.0 -1.0
vn 0.0 0.0 -1.0
vn 0.0 0.0 -1.0
vn 1.0 0.0 0.0
vn 1.0 0.0 0.0
vn 1.0 0.0 0.0
vn 1.0 0.0 0.0
vn 1.0 0.0 0.0
vn 1.0 0.0 0.0
vn -1.0 0.0 0.0
vn -1.0 0.0 0.0
vn -1.0 0.0 0.0
vn -1.0 0.0 0.0
vn -1.0 0.0 0.0
vn -1.0 0.0 0.0
vn 0.0 1.0 0.0
vn 0.0 1.0 0.0
vn 0.0 1.0 0.0
vn 0.0 1.0 0.0
vn 0.0 1.0 0.0
vn 0.0 1.0 0.0
vn 0.0 -1.0 0.0
vn 0.0 -1.0 0.0
vn 0.0 -1.0 0.0
vn 0.0 -1.0 0.0
vn 0.0 -1.0 0.0
vn 0.0 -1.0 0.0

# cone, 6 grouped triangles

usemtl lander
o cone
g cone

f 21/85/85 22/86/86 3/87/87
f 3/88/88 4/89/89 21/90/90
f 22/91/91 3/92/92 23/93/93
f 24/94/94 3/95/95 4/96/96
f 24/97/97 4/98/98 21/99/99
f 21/100/100 22/101/101 24/102/102
# main, 10 grouped triangles

usemtl lander
o main
g main

f 1/1/1 2/2/2 3/3/3
f 2/4/4 4/5/5 3/6/6
f 5/7/7 6/8/8 7/9/9
f 6/10/10 8/11/11 7/12/12
f 3/13/13 6/14/14 1/15/15
f 3/16/16 8/17/17 6/18/18
f 3/25/25 7/26/26 8/27/27
f 3/28/28 4/29/29 7/30/30
f 2/31/31 6/32/32 5/33/33
f 2/34/34 1/35/35 6/36/36
# leftfin, 9 grouped triangles

usemtl lander
o leftfin
g leftfin

f 9/43/43 14/44/44 11/45/45
f 15/61/61 16/62/62 17/63/63
f 16/64/64 18/65/65 17/66/66
f 17/67/67 20/68/68 15/69/69
f 19/70/70 18/71/71 16/72/72
f 17/73/73 19/74/74 20/75/75
f 17/76/76 18/77/77 19/78/78
f 16/79/79 20/80/80 19/81/81
f 16/82/82 15/83/83 20/84/84
# rightfin, 7 grouped triangles

usemtl lander
o rightfin
g rightfin

f 11/37/37 10/38/38 9/39/39
f 11/40/40 12/41/41 10/42/42
f 10/46/46 12/47/47 13/48/48
f 14/49/49 13/50/50 11/51/51
f 13/52/52 12/53/53 11/54/54
f 13/55/55 14/56/56 10/57/57
f 14/58/58 9/59/59 10/60/60
# engine, 12 grouped triangles

usemtl lander
o engine
g engine

f 27/103/103 26/104/104 25/105/105
f 27/106/106 28/107/107 26/108/108
f 31/109/109 30/110/110 29/111/111
f 31/112/112 32/113/113 30/114/114
f 25/115/115 30/116/116 27/117/117
f 30/118/118 32/119/119 27/120/120
f 29/121/121 26/122/122 31/123/123
f 26/124/124 28/125/125 31/126/126
f 32/127/127 31/128/128 27/129/129
f 31/130/130 28/131/131 27/132/132
f 29/133/133 30/134/134 26/135/135
f 30/136/136 25/137/137 26/138/138
# back, 2 grouped triangles

usemtl lander
o back
g back

f 7/19/19 2/20/20 5/21/21
f 7/22/22 4/23/23 2/24/24
