# Wavefront OBJ file
# Exported by Maverick Model 3D 1.3.12
# Fri Oct  8 10:00:00 2021

mtllib rescue.mtl

# 72 Vertices
v -4.905536 -3.965675 3.595038
v 5.301994 -3.965675 3.595038
v -4.905536 4.393651 3.595038
v 5.301994 4.393651 3.595038
v 5.301994 -3.965675 -4.335564
v -4.905536 -3.965675 -4.335564
v 5.301994 4.393651 -4.335564
v -4.905536 4.393651 -4.335564
v -3.210001 -1.328208 0.97874
v -7.684532 -1.328208 0.97874
v -3.210001 1.369797 0.97874
v -7.684532 1.369797 0.97874
v -7.684532 -1.328208 -1.719266
v -3.210001 -1.328208 -1.719266
v -7.684532 1.369797 -1.719266
v -3.210001 1.369797 -1.719266
v -9.592406 -1.328208 0.97874
v -9.592406 1.369797 0.97874
v -9.592406 -1.328208 -1.719266
v -9.592406 1.369797 -1.719266
v -7.684532 6.581001 0.97874
v -7.684532 6.581001 -1.719266
v -9.592406 6.581001 0.97874
v -9.592406 6.581001 -1.719266
v 5.351734 -3.906432 -5.50412
v 5.282878 -3.906432 4.752561
v 3.543232 -3.906432 -5.515908
v 3.474376 -3.906432 4.740773
v 5.282878 -5.919129 4.752561
v 5.351734 -5.919128 -5.50412
v 3.474376 -5.919129 4.740773
v 3.543232 -5.919128 -5.515908
v -2.998045 -3.906432 -5.504119
v -3.0669 -3.906433 4.752562
v -4.806547 -3.906432 -5.515908
v -4.875402 -3.906433 4.740773
v -3.0669 -5.919129 4.752561
v -2.998045 -5.919128 -5.50412
v -4.875402 -5.919129 4.740773
v -4.806547 -5.919128 -5.515908
v 7.035723 -5.880733 -5.504119
v 6.966867 -5.880734 4.752562
v 5.227221 -5.880733 -5.515908
v 5.158365 -5.880734 4.740773
v 6.966867 -7.89343 4.752561
v 7.035723 -7.893429 -5.50412
v 5.158365 -7.89343 4.740773
v 5.227221 -7.893429 -5.515908
v -4.699576 -5.777531 -5.504119
v -4.768431 -5.777531 4.752562
v -6.508077 -5.777531 -5.515908
v -6.576933 -5.777531 4.740773
v -4.768431 -7.790228 4.752561
v -4.699576 -7.790227 -5.50412
v -6.576933 -7.790228 4.740773
v -6.508077 -7.790227 -5.515908
v 3.210001 -1.328208 0.97874
v 7.684532 -1.328208 0.97874
v 3.210001 1.369797 0.97874
v 7.684532 1.369797 0.97874
v 7.684532 -1.328208 -1.719266
v 3.210001 -1.328208 -1.719266
v 7.684532 1.369797 -1.719266
v 3.210001 1.369797 -1.719266
v 9.592405 -1.328208 0.97874
v 9.592405 1.369797 0.97874
v 9.592405 -1.328208 -1.719266
v 9.592405 1.369797 -1.719266
v 7.684532 6.581001 0.97874
v 7.684532 6.581001 -1.719266
v 9.592405 6.581001 0.97874
v 9.592405 6.581001 -1.719266

# 348 Texture Coordinates
vt 0.632653 0.0
vt 1.0 0.0
vt 0.632653 0.37037
vt 1.0 0.0
vt 1.0 0.37037
vt 0.632653 0.37037
vt 1.0 0.0
vt 0.632653 0.0
vt 1.0 0.37037
vt 0.632653 0.0
vt 0.632653 0.37037
vt 1.0 0.37037
vt 0.0 1.0
vt 0.615385 0.441595
vt 0.0 0.441595
vt 0.0 1.0
vt 0.615385 1.0
vt 0.615385 0.441595
vt 0.0 1.0
vt 0.592068 0.390855
vt 0.0 0.390855
vt 0.0 1.0
vt 0.592068 1.0
vt 0.592068 0.390855
vt 0.0 0.380869
vt 0.617898 1.0
vt 0.0 1.0
vt 0.0 0.380869
vt 0.617898 0.380869
vt 0.617898 1.0
vt 0.607217 1.0
vt 0.0 0.392534
vt 0.607217 0.392534
vt 0.607217 1.0
vt 0.0 1.0
vt 0.0 0.392534
vt 0.544409 0.650814
vt 0.544409 0.470029
vt 0.544409 0.470029
vt 0.544409 0.650814
vt 0.544409 0.650814
vt 0.544409 0.470029
vt 0.0 0.650814
vt 0.0 0.470029
vt 0.0 0.470029
vt 0.0 0.650814
vt 0.0 0.650814
vt 0.0 0.470029
vt 0.544409 0.470029
vt 0.0 0.470029
vt 0.544409 0.650814
vt 0.0 0.470029
vt 0.0 0.650814
vt 0.544409 0.650814
vt 0.0 0.470029
vt 0.544409 0.470029
vt 0.0 0.650814
vt 0.544409 0.470029
vt 0.544409 0.650814
vt 0.0 0.650814
vt 0.0 0.650814
vt 0.0 0.650814
vt 0.544409 0.650814
vt 0.0 0.650814
vt 0.544409 0.650814
vt 0.544409 0.650814
vt 0.0 0.470029
vt 0.0 0.470029
vt 0.544409 0.470029
vt 0.0 0.470029
vt 0.544409 0.470029
vt 0.544409 0.470029
vt 0.544409 0.470029
vt 0.0 0.470029
vt 0.0 0.470029
vt 0.0 0.470029
vt 0.544409 0.470029
vt 0.544409 0.470029
vt 0.0 0.470029
vt 0.0 0.650814
vt 0.0 0.650814
vt 0.0 0.650814
vt 0.0 0.470029
vt 0.0 0.470029
vt 0.0 1.0
vt 0.544409 1.0
vt 0.544409 1.0
vt 0.544409 1.0
vt 0.0 1.0
vt 0.0 1.0
vt 0.544409 0.650814
vt 0.544409 0.470029
vt 0.544409 0.470029
vt 0.544409 0.470029
vt 0.544409 0.650814
vt 0.544409 0.650814
vt 0.544409 1.0
vt 0.544409 1.0
vt 0.544409 0.650814
vt 0.544409 0.650814
vt 0.544409 0.650814
vt 0.544409 1.0
vt 0.544409 1.0
vt 0.0 1.0
vt 0.0 0.650814
vt 0.0 0.650814
vt 0.544409 0.650814
vt 0.544409 1.0
vt 0.0 1.0
vt 0.0 1.0
vt 0.0 0.650814
vt 0.0 0.650814
vt 0.0 0.650814
vt 0.0 1.0
vt 0.0 1.0
vt 0.544409 1.0
vt 0.544409 0.650814
vt 0.544409 0.650814
vt 0.0 0.650814
vt 0.0 1.0
vt 0.202978 1.0
vt 0.101872 1.0
vt 0.097871 1.0
vt 0.202978 1.0
vt 0.20698 1.0
vt 0.101872 1.0
vt 0.20698 0.694764
vt 0.097871 0.694765
vt 0.101872 0.694764
vt 0.20698 0.694764
vt 0.202978 0.694765
vt 0.097871 0.694765
vt 0.097871 1.0
vt 0.097871 0.694765
vt 0.202978 1.0
vt 0.097871 0.694765
vt 0.202978 0.694765
vt 0.202978 1.0
vt 0.101872 0.694764
vt 0.101872 1.0
vt 0.20698 0.694764
vt 0.101872 1.0
vt 0.20698 1.0
vt 0.20698 0.694764
vt 0.202978 0.694765
vt 0.20698 0.694764
vt 0.202978 1.0
vt 0.20698 0.694764
vt 0.20698 1.0
vt 0.202978 1.0
vt 0.101872 0.694764
vt 0.097871 0.694765
vt 0.101872 1.0
vt 0.097871 0.694765
vt 0.097871 1.0
vt 0.101872 1.0
vt 0.688254 1.0
vt 0.587148 1.0
vt 0.583146 1.0
vt 0.688254 1.0
vt 0.692255 1.0
vt 0.587148 1.0
vt 0.692255 0.694764
vt 0.583146 0.694765
vt 0.587148 0.694764
vt 0.692255 0.694764
vt 0.688254 0.694765
vt 0.583146 0.694765
vt 0.583146 1.0
vt 0.583146 0.694765
vt 0.688254 1.0
vt 0.583146 0.694765
vt 0.688254 0.694765
vt 0.688254 1.0
vt 0.587148 0.694764
vt 0.587148 1.0
vt 0.692255 0.694764
vt 0.587148 1.0
vt 0.692255 1.0
vt 0.692255 0.694764
vt 0.688254 0.694765
vt 0.692255 0.694764
vt 0.688254 1.0
vt 0.692255 0.694764
vt 0.692255 1.0
vt 0.688254 1.0
vt 0.587148 0.694764
vt 0.583146 0.694765
vt 0.587148 1.0
vt 0.583146 0.694765
vt 0.583146 1.0
vt 0.587148 1.0
vt 0.105107 0.700587
vt 0.004002 0.700587
vt 0.0 0.700587
vt 0.105107 0.700587
vt 0.109109 0.700587
vt 0.004002 0.700587
vt 0.109109 0.395352
vt 0.0 0.395352
vt 0.004002 0.395352
vt 0.109109 0.395352
vt 0.105107 0.395352
vt 0.0 0.395352
vt 0.0 0.700587
vt 0.0 0.395352
vt 0.105107 0.700587
vt 0.0 0.395352
vt 0.105107 0.395352
vt 0.105107 0.700587
vt 0.004002 0.395352
vt 0.004002 0.700587
vt 0.109109 0.395352
vt 0.004002 0.700587
vt 0.109109 0.700587
vt 0.109109 0.395352
vt 0.105107 0.395352
vt 0.109109 0.395352
vt 0.105107 0.700587
vt 0.109109 0.395352
vt 0.109109 0.700587
vt 0.105107 0.700587
vt 0.004002 0.395352
vt 0.0 0.395352
vt 0.004002 0.700587
vt 0.0 0.395352
vt 0.0 0.700587
vt 0.004002 0.700587
vt 0.787144 0.716239
vt 0.686038 0.716238
vt 0.682037 0.716239
vt 0.787144 0.716239
vt 0.791146 0.716238
vt 0.686038 0.716238
vt 0.791146 0.411003
vt 0.682037 0.411003
vt 0.686038 0.411003
vt 0.791146 0.411003
vt 0.787144 0.411003
vt 0.682037 0.411003
vt 0.682037 0.716239
vt 0.682037 0.411003
vt 0.787144 0.716239
vt 0.682037 0.411003
vt 0.787144 0.411003
vt 0.787144 0.716239
vt 0.686038 0.411003
vt 0.686038 0.716238
vt 0.791146 0.411003
vt 0.686038 0.716238
vt 0.791146 0.716238
vt 0.791146 0.411003
vt 0.787144 0.411003
vt 0.791146 0.411003
vt 0.787144 0.716239
vt 0.791146 0.411003
vt 0.791146 0.716238
vt 0.787144 0.716239
vt 0.686038 0.411003
vt 0.682037 0.411003
vt 0.686038 0.716238
vt 0.682037 0.411003
vt 0.682037 0.716239
vt 0.686038 0.716238
vt 0.544409 0.470029
vt 0.544409 0.470029
vt 0.544409 0.650814
vt 0.544409 0.470029
vt 0.544409 0.650814
vt 0.544409 0.650814
vt 0.0 0.470029
vt 0.0 0.470029
vt 0.0 0.650814
vt 0.0 0.470029
vt 0.0 0.650814
vt 0.0 0.650814
vt 0.544409 0.650814
vt 0.0 0.470029
vt 0.544409 0.470029
vt 0.544409 0.650814
vt 0.0 0.650814
vt 0.0 0.470029
vt 0.0 0.650814
vt 0.544409 0.470029
vt 0.0 0.470029
vt 0.0 0.650814
vt 0.544409 0.650814
vt 0.544409 0.470029
vt 0.544409 0.650814
vt 0.0 0.650814
vt 0.0 0.650814
vt 0.544409 0.650814
vt 0.544409 0.650814
vt 0.0 0.650814
vt 0.544409 0.470029
vt 0.0 0.470029
vt 0.0 0.470029
vt 0.544409 0.470029
vt 0.544409 0.470029
vt 0.0 0.470029
vt 0.0 0.470029
vt 0.0 0.470029
vt 0.544409 0.470029
vt 0.544409 0.470029
vt 0.544409 0.470029
vt 0.0 0.470029
vt 0.0 0.650814
vt 0.0 0.650814
vt 0.0 0.470029
vt 0.0 0.470029
vt 0.0 0.470029
vt 0.0 0.650814
vt 0.544409 1.0
vt 0.544409 1.0
vt 0.0 1.0
vt 0.0 1.0
vt 0.0 1.0
vt 0.544409 1.0
vt 0.544409 0.470029
vt 0.544409 0.470029
vt 0.544409 0.650814
vt 0.544409 0.650814
vt 0.544409 0.650814
vt 0.544409 0.470029
vt 0.544409 0.650814
vt 0.544409 1.0
vt 0.544409 1.0
vt 0.544409 1.0
vt 0.544409 0.650814
vt 0.544409 0.650814
vt 0.0 0.650814
vt 0.0 1.0
vt 0.544409 1.0
vt 0.544409 1.0
vt 0.544409 0.650814
vt 0.0 0.650814
vt 0.0 0.650814
vt 0.0 1.0
vt 0.0 1.0
vt 0.0 1.0
vt 0.0 0.650814
vt 0.0 0.650814
vt 0.544409 0.650814
vt 0.544409 1.0
vt 0.0 1.0
vt 0.0 1.0
vt 0.0 0.650814
vt 0.544409 0.650814

# 348 Vertex Normals
vn 0.0 0.0 1.0
vn 0.0 0.0 1.0
vn 0.0 0.0 1.0
vn 0.0 0.0 1.0
vn 0.0 0.0 1.0
vn 0.0 0.0 1.0
vn 0.0 0.0 -1.0
vn 0.0 0.0 -1.0
vn 0.0 0.0 -1.0
vn 0.0 0.0 -1.0
vn 0.0 0.0 -1.0
vn 0.0 0.0 -1.0
vn -1.0 0.0 0.0
vn -1.0 0.0 0.0
vn -1.0 0.0 0.0
vn -1.0 0.0 0.0
vn -1.0 0.0 0.0
vn -1.0 0.0 0.0
vn 1.0 0.0 0.0
vn 1.0 0.0 0.0
vn 1.0 0.0 0.0
vn 1.0 0.0 0.0
vn 1.0 0.0 0.0
vn 1.0 0.0 0.0
vn 0.0 1.0 0.0
vn 0.0 1.0 0.0
vn 0.0 1.0 0.0
vn 0.0 1.0 0.0
vn 0.0 1.0 0.0
vn 0.0 1.0 0.0
vn -0.0 -1.0 0.0
vn -0.0 -1.0 0.0
vn -0.0 -1.0 0.0
vn -0.0 -1.0 0.0
vn 0.0 -1.0 0.0
vn -0.0 -1.0 0.0
vn 0.0 0.0 1.0
vn 0.0 0.0 1.0
vn 0.0 0.0 1.0
vn 0.0 0.0 1.0
vn 0.0 0.0 1.0
vn 0.0 0.0 1.0
vn 0.0 0.0 -1.0
vn 0.0 0.0 -1.0
vn 0.0 0.0 -1.0
vn 0.0 0.0 -1.0
vn 0.0 0.0 -1.0
vn 0.0 0.0 -1.0
vn 1.0 0.0 0.0
vn 1.0 0.0 0.0
vn 1.0 0.0 0.0
vn 1.0 0.0 0.0
vn 1.0 0.0 0.0
vn 1.0 0.0 0.0
vn -1.0 0.0 0.0
vn -1.0 0.0 0.0
vn -1.0 0.0 0.0
vn -1.0 0.0 0.0
vn -1.0 0.0 0.0
vn -1.0 0.0 0.0
vn 0.0 1.0 0.0
vn 0.0 1.0 0.0
vn 0.0 1.0 0.0
vn 0.0 1.0 0.0
vn 0.0 1.0 0.0
vn 0.0 1.0 0.0
vn 0.0 -1.0 0.0
vn 0.0 -1.0 0.0
vn 0.0 -1.0 0.0
vn 0.0 -1.0 0.0
vn 0.0 -1.0 0.0
vn 0.0 -1.0 0.0
vn 0.0 -1.0 0.0
vn 0.0 -1.0 0.0
vn 0.0 -1.0 0.0
vn 0.0 -1.0 0.0
vn 0.0 -1.0 0.0
vn 0.0 -1.0 0.0
vn 0.0 0.0 -1.0
vn 0.0 0.0 -1.0
vn 0.0 0.0 -1.0
vn 0.0 0.0 -1.0
vn 0.0 0.0 -1.0
vn 0.0 0.0 -1.0
vn 0.0 1.0 0.0
vn 0.0 1.0 0.0
vn 0.0 1.0 0.0
vn 0.0 1.0 0.0
vn 0.0 1.0 0.0
vn 0.0 1.0 0.0
vn 0.0 0.0 1.0
vn 0.0 0.0 1.0
vn 0.0 0.0 1.0
vn 0.0 0.0 1.0
vn 0.0 0.0 1.0
vn 0.0 0.0 1.0
vn 0.0 0.0 1.0
vn 0.0 0.0 1.0
vn 0.0 0.0 1.0
vn 0.0 0.0 1.0
vn 0.0 0.0 1.0
vn 0.0 0.0 1.0
vn -1.0 0.0 0.0
vn -1.0 0.0 0.0
vn -1.0 0.0 0.0
vn -1.0 0.0 0.0
vn -1.0 0.0 0.0
vn -1.0 0.0 0.0
vn 0.0 0.0 -1.0
vn 0.0 0.0 -1.0
vn 0.0 0.0 -1.0
vn 0.0 0.0 -1.0
vn 0.0 0.0 -1.0
vn 0.0 0.0 -1.0
vn 1.0 0.0 0.0
vn 1.0 0.0 0.0
vn 1.0 0.0 0.0
vn 1.0 0.0 0.0
vn 1.0 0.0 0.0
vn 1.0 0.0 0.0
vn 0.0 1.0 0.0
vn 0.0 1.0 0.0
vn 0.0 1.0 0.0
vn 0.0 1.0 0.0
vn 0.0 1.0 0.0
vn 0.0 1.0 0.0
vn 0.0 -1.0 -0.0
vn 0.0 -1.0 -0.0
vn 0.0 -1.0 -0.0
vn 0.0 -1.0 -0.0
vn -0.0 -1.0 -0.0
vn 0.0 -1.0 -0.0
vn 0.006518 0.0 -0.999979
vn 0.006518 0.0 -0.999979
vn 0.006518 0.0 -0.999979
vn 0.006518 0.0 -0.999979
vn 0.006518 0.0 -0.999979
vn 0.006518 0.0 -0.999979
vn -0.006518 -0.0 0.999979
vn -0.006518 -0.0 0.999979
vn -0.006518 -0.0 0.999979
vn -0.006518 -0.0 0.999979
vn -0.006518 0.0 0.999979
vn -0.006518 -0.0 0.999979
vn -0.999977 0.0 -0.006713
vn -0.999977 0.0 -0.006713
vn -0.999977 0.0 -0.006713
vn -0.999977 0.0 -0.006713
vn -0.999977 0.0 -0.006713
vn -0.999977 0.0 -0.006713
vn 0.999977 -0.0 0.006713
vn 0.999977 -0.0 0.006713
vn 0.999977 -0.0 0.006713
vn 0.999977 -0.0 0.006713
vn 0.999977 -0.0 0.006713
vn 0.999977 -0.0 0.006713
vn 0.0 1.0 0.0
vn 0.0 1.0 0.0
vn 0.0 1.0 0.0
vn 0.0 1.0 0.0
vn 0.0 1.0 0.0
vn 0.0 1.0 0.0
vn 0.0 -1.0 -0.0
vn 0.0 -1.0 -0.0
vn 0.0 -1.0 -0.0
vn 0.0 -1.0 -0.0
vn -0.0 -1.0 -0.0
vn 0.0 -1.0 -0.0
vn 0.006518 0.0 -0.999979
vn 0.006518 0.0 -0.999979
vn 0.006518 0.0 -0.999979
vn 0.006518 0.0 -0.999979
vn 0.006518 0.0 -0.999979
vn 0.006518 0.0 -0.999979
vn -0.006518 -0.0 0.999979
vn -0.006518 -0.0 0.999979
vn -0.006518 -0.0 0.999979
vn -0.006518 -0.0 0.999979
vn -0.006518 0.0 0.999979
vn -0.006518 -0.0 0.999979
vn -0.999977 0.0 -0.006713
vn -0.999977 0.0 -0.006713
vn -0.999977 0.0 -0.006713
vn -0.999977 0.0 -0.006713
vn -0.999977 0.0 -0.006713
vn -0.999977 0.0 -0.006713
vn 0.999977 -0.0 0.006713
vn 0.999977 -0.0 0.006713
vn 0.999977 -0.0 0.006713
vn 0.999977 -0.0 0.006713
vn 0.999977 -0.0 0.006713
vn 0.999977 -0.0 0.006713
vn 0.0 1.0 0.0
vn 0.0 1.0 0.0
vn -0.0 1.0 0.0
vn 0.0 1.0 0.0
vn 0.0 1.0 0.0
vn 0.0 1.0 0.0
vn 0.0 -1.0 -0.0
vn 0.0 -1.0 -0.0
vn 0.0 -1.0 -0.0
vn 0.0 -1.0 -0.0
vn -0.0 -1.0 -0.0
vn 0.0 -1.0 -0.0
vn 0.006518 0.0 -0.999979
vn 0.006518 0.0 -0.999979
vn 0.006518 0.0 -0.999979
vn 0.006518 0.0 -0.999979
vn 0.006518 0.0 -0.999979
vn 0.006518 0.0 -0.999979
vn -0.006518 -0.0 0.999979
vn -0.006518 -0.0 0.999979
vn -0.006518 -0.0 0.999979
vn -0.006518 -0.0 0.999979
vn -0.006518 0.0 0.999979
vn -0.006518 -0.0 0.999979
vn -0.999977 0.0 -0.006713
vn -0.999977 0.0 -0.006713
vn -0.999977 0.0 -0.006713
vn -0.999977 0.0 -0.006713
vn -0.999977 0.0 -0.006713
vn -0.999977 0.0 -0.006713
vn 0.999977 -0.0 0.006713
vn 0.999977 -0.0 0.006713
vn 0.999977 -0.0 0.006713
vn 0.999977 -0.0 0.006713
vn 0.999977 -0.0 0.006713
vn 0.999977 -0.0 0.006713
vn 0.0 1.0 0.0
vn 0.0 1.0 0.0
vn -0.0 1.0 0.0
vn 0.0 1.0 0.0
vn 0.0 1.0 0.0
vn 0.0 1.0 0.0
vn -0.0 -1.0 -0.0
vn -0.0 -1.0 -0.0
vn 0.0 -1.0 -0.0
vn -0.0 -1.0 -0.0
vn -0.0 -1.0 -0.0
vn -0.0 -1.0 -0.0
vn 0.006518 0.0 -0.999979
vn 0.006518 0.0 -0.999979
vn 0.006518 0.0 -0.999979
vn 0.006518 0.0 -0.999979
vn 0.006518 0.0 -0.999979
vn 0.006518 0.0 -0.999979
vn -0.006518 -0.0 0.999979
vn -0.006518 -0.0 0.999979
vn -0.006518 -0.0 0.999979
vn -0.006518 -0.0 0.999979
vn -0.006518 0.0 0.999979
vn -0.006518 -0.0 0.999979
vn -0.999977 0.0 -0.006713
vn -0.999977 0.0 -0.006713
vn -0.999977 0.0 -0.006713
vn -0.999977 0.0 -0.006713
vn -0.999977 0.0 -0.006713
vn -0.999977 0.0 -0.006713
vn 0.999977 -0.0 0.006713
vn 0.999977 -0.0 0.006713
vn 0.999977 -0.0 0.006713
vn 0.999977 -0.0 0.006713
vn 0.999977 -0.0 0.006713
vn 0.999977 -0.0 0.006713
vn 0.0 0.0 1.0
vn 0.0 0.0 1.0
vn 0.0 0.0 1.0
vn 0.0 0.0 1.0
vn 0.0 0.0 1.0
vn 0.0 0.0 1.0
vn 0.0 0.0 -1.0
vn 0.0 0.0 -1.0
vn 0.0 0.0 -1.0
vn 0.0 0.0 -1.0
vn 0.0 0.0 -1.0
vn 0.0 0.0 -1.0
vn -1.0 0.0 0.0
vn -1.0 0.0 0.0
vn -1.0 0.0 0.0
vn -1.0 0.0 0.0
vn -1.0 0.0 0.0
vn -1.0 0.0 0.0
vn 1.0 0.0 0.0
vn 1.0 0.0 0.0
vn 1.0 0.0 0.0
vn 1.0 0.0 0.0
vn 1.0 0.0 0.0
vn 1.0 0.0 0.0
vn 0.0 1.0 0.0
vn 0.0 1.0 0.0
vn 0.0 1.0 0.0
vn 0.0 1.0 0.0
vn 0.0 1.0 0.0
vn 0.0 1.0 0.0
vn 0.0 -1.0 0.0
vn 0.0 -1.0 0.0
vn 0.0 -1.0 0.0
vn 0.0 -1.0 0.0
vn 0.0 -1.0 0.0
vn 0.0 -1.0 0.0
vn 0.0 -1.0 0.0
vn 0.0 -1.0 0.0
vn 0.0 -1.0 0.0
vn 0.0 -1.0 0.0
vn 0.0 -1.0 0.0
vn 0.0 -1.0 0.0
vn 0.0 0.0 -1.0
vn 0.0 0.0 -1.0
vn 0.0 0.0 -1.0
vn 0.0 0.0 -1.0
vn 0.0 0.0 -1.0
vn 0.0 0.0 -1.0
vn 0.0 1.0 0.0
vn 0.0 1.0 0.0
vn 0.0 1.0 0.0
vn 0.0 1.0 0.0
vn 0.0 1.0 0.0
vn 0.0 1.0 0.0
vn 0.0 0.0 1.0
vn 0.0 0.0 1.0
vn 0.0 0.0 1.0
vn 0.0 0.0 1.0
vn 0.0 0.0 1.0
vn 0.0 0.0 1.0
vn 0.0 0.0 1.0
vn 0.0 0.0 1.0
vn 0.0 0.0 1.0
vn 0.0 0.0 1.0
vn 0.0 0.0 1.0
vn 0.0 0.0 1.0
vn 1.0 0.0 0.0
vn 1.0 0.0 0.0
vn 1.0 0.0 0.0
vn 1.0 0.0 0.0
vn 1.0 0.0 0.0
vn 1.0 0.0 0.0
vn 0.0 0.0 -1.0
vn 0.0 0.0 -1.0
vn 0.0 0.0 -1.0
vn 0.0 0.0 -1.0
vn 0.0 0.0 -1.0
vn 0.0 0.0 -1.0
vn -1.0 0.0 0.0
vn -1.0 0.0 0.0
vn -1.0 0.0 0.0
vn -1.0 0.0 0.0
vn -1.0 0.0 0.0
vn -1.0 0.0 0.0

# arm, 56 grouped triangles

usemtl green
o arm
g arm

f 11/37/37 10/38/38 9/39/39
f 11/40/40 12/41/41 10/42/42
f 15/43/43 14/44/44 13/45/45
f 15/46/46 16/47/47 14/48/48
f 9/49/49 14/50/50 11/51/51
f 14/52/52 16/53/53 11/54/54
f 19/55/55 17/56/56 20/57/57
f 17/58/58 18/59/59 20/60/60
f 16/61/61 15/62/62 11/63/63
f 15/64/64 12/65/65 11/66/66
f 13/67/67 14/68/68 10/69/69
f 14/70/70 9/71/71 10/72/72
f 17/73/73 19/74/74 13/75/75
f 13/76/76 10/77/77 17/78/78
f 19/79/79 20/80/80 15/81/81
f 15/82/82 13/83/83 19/84/84
f 24/85/85 23/86/86 21/87/87
f 21/88/88 22/89/89 24/90/90
f 18/91/91 17/92/92 10/93/93
f 10/94/94 12/95/95 18/96/96
f 21/97/97 23/98/98 18/99/99
f 18/100/100 12/101/101 21/102/102
f 23/103/103 24/104/104 20/105/105
f 20/106/106 18/107/107 23/108/108
f 24/109/109 22/110/110 15/111/111
f 15/112/112 20/113/113 24/114/114
f 22/115/115 21/116/116 12/117/117
f 12/118/118 15/119/119 22/120/120
f 57/265/265 58/266/266 59/267/267
f 58/268/268 60/269/269 59/270/270
f 61/271/271 62/272/272 63/273/273
f 62/274/274 64/275/275 63/276/276
f 59/277/277 62/278/278 57/279/279
f 59/280/280 64/281/281 62/282/282
f 68/283/283 65/284/284 67/285/285
f 68/286/286 66/287/287 65/288/288
f 59/289/289 63/290/290 64/291/291
f 59/292/292 60/293/293 63/294/294
f 58/295/295 62/296/296 61/297/297
f 58/298/298 57/299/299 62/300/300
f 61/301/301 67/302/302 65/303/303
f 65/304/304 58/305/305 61/306/306
f 63/307/307 68/308/308 67/309/309
f 67/310/310 61/311/311 63/312/312
f 69/313/313 71/314/314 72/315/315
f 72/316/316 70/317/317 69/318/318
f 58/319/319 65/320/320 66/321/321
f 66/322/322 60/323/323 58/324/324
f 66/325/325 71/326/326 69/327/327
f 69/328/328 60/329/329 66/330/330
f 68/331/331 72/332/332 71/333/333
f 71/334/334 66/335/335 68/336/336
f 63/337/337 70/338/338 72/339/339
f 72/340/340 68/341/341 63/342/342
f 60/343/343 69/344/344 70/345/345
f 70/346/346 63/347/347 60/348/348
# legs, 48 grouped triangles

usemtl green
o legs
g legs

f 27/121/121 26/122/122 25/123/123
f 27/124/124 28/125/125 26/126/126
f 31/127/127 30/128/128 29/129/129
f 31/130/130 32/131/131 30/132/132
f 25/133/133 30/134/134 27/135/135
f 30/136/136 32/137/137 27/138/138
f 29/139/139 26/140/140 31/141/141
f 26/142/142 28/143/143 31/144/144
f 32/145/145 31/146/146 27/147/147
f 31/148/148 28/149/149 27/150/150
f 29/151/151 30/152/152 26/153/153
f 30/154/154 25/155/155 26/156/156
f 35/157/157 34/158/158 33/159/159
f 35/160/160 36/161/161 34/162/162
f 39/163/163 38/164/164 37/165/165
f 39/166/166 40/167/167 38/168/168
f 33/169/169 38/170/170 35/171/171
f 38/172/172 40/173/173 35/174/174
f 37/175/175 34/176/176 39/177/177
f 34/178/178 36/179/179 39/180/180
f 40/181/181 39/182/182 35/183/183
f 39/184/184 36/185/185 35/186/186
f 37/187/187 38/188/188 34/189/189
f 38/190/190 33/191/191 34/192/192
f 43/193/193 42/194/194 41/195/195
f 43/196/196 44/197/197 42/198/198
f 47/199/199 46/200/200 45/201/201
f 47/202/202 48/203/203 46/204/204
f 41/205/205 46/206/206 43/207/207
f 46/208/208 48/209/209 43/210/210
f 45/211/211 42/212/212 47/213/213
f 42/214/214 44/215/215 47/216/216
f 48/217/217 47/218/218 43/219/219
f 47/220/220 44/221/221 43/222/222
f 45/223/223 46/224/224 42/225/225
f 46/226/226 41/227/227 42/228/228
f 51/229/229 50/230/230 49/231/231
f 51/232/232 52/233/233 50/234/234
f 55/235/235 54/236/236 53/237/237
f 55/238/238 56/239/239 54/240/240
f 49/241/241 54/242/242 51/243/243
f 54/244/244 56/245/245 51/246/246
f 53/247/247 50/248/248 55/249/249
f 50/250/250 52/251/251 55/252/252
f 56/253/253 55/254/254 51/255/255
f 55/256/256 52/257/257 51/258/258
f 53/259/259 54/260/260 50/261/261
f 54/262/262 49/263/263 50/264/264
# left, 2 grouped triangles

usemtl green
o left
g left

f 7/19/19 2/20/20 5/21/21
f 7/22/22 4/23/23 2/24/24
# right, 2 grouped triangles

usemtl green
o right
g right

f 3/13/13 6/14/14 1/15/15
f 3/16/16 8/17/17 6/18/18
# back, 2 grouped triangles

usemtl green
o back
g back

f 5/7/7 6/8/8 7/9/9
f 6/10/10 8/11/11 7/12/12
# front, 2 grouped triangles

usemtl green
o front
g front

f 1/1/1 2/2/2 3/3/3
f 2/4/4 4/5/5 3/6/6
# top, 2 grouped triangles

usemtl green
o top
g top

f 3/25/25 7/26/26 8/27/27
f 3/28/28 4/29/29 7/30/30
# bottom, 2 grouped triangles

usemtl green
o bottom
g bottom

f 2/31/31 6/32/32 5/33/33
f 2/34/34 1/35/35 6/36/36
